<!-- icon666.com - MILLIONS vector ICONS FREE --><svg id="Layer_1" enable-background="new 0 0 512 512" viewBox="0 0 512 512" xmlns="http://www.w3.org/2000/svg"><path clip-rule="evenodd" d="m512 445.605c0 13.39-10.889 24.276-24.279 24.276h-463.448c-13.39 0-24.273-10.887-24.273-24.276v-307.498c0-13.389 10.883-24.277 24.273-24.277h117.683c3.657 0 6.935-2.256 8.243-5.671l25.28-66.041h161.044l25.274 66.042c1.307 3.416 4.585 5.67 8.242 5.67h117.683c13.389 0 24.279 10.886 24.279 24.277v307.498zm-256-309.262c-76.911 0-139.475 62.565-139.475 139.475 0 76.911 62.564 139.476 139.475 139.476s139.475-62.565 139.475-139.476c-.001-76.91-62.564-139.475-139.475-139.475zm0 243.64c57.43 0 104.163-46.73 104.163-104.166 0-57.434-46.733-104.165-104.163-104.165-57.436 0-104.169 46.73-104.169 104.165 0 57.436 46.733 104.166 104.169 104.166z" fill-rule="evenodd" fill="#000000" style="fill: rgb(255, 255, 255);"></path></svg>